<?xml version="1.0" encoding="utf-8"?>
<!-- Generator: Adobe Illustrator 21.1.0, SVG Export Plug-In . SVG Version: 6.00 Build 0)  -->
<svg version="1.1" id="Layer_1" xmlns="http://www.w3.org/2000/svg" xmlns:xlink="http://www.w3.org/1999/xlink" x="0px" y="0px"
	 viewBox="0 0 64 64" style="enable-background:new 0 0 64 64;" xml:space="preserve">
<g>
	<g>
		<defs>
			<polygon id="SVGID_1_" points="63.5,52 23.5,52 2.5,31 20.5,12 63.5,12 63.5,52 			"/>
		</defs>
		<clipPath id="SVGID_2_">
			<use xlink:href="#SVGID_1_"  style="overflow:visible;"/>
		</clipPath>
		<g style="clip-path:url(#SVGID_2_);">
			
				<image style="overflow:visible;" width="64" height="64" xlink:href="EE3FEC7D.jpg"  transform="matrix(1 0 0 1 0.4996 1.525879e-05)">
			</image>
		</g>
	</g>
	<g>
		<defs>
			<polygon id="SVGID_3_" points="28.5,24 32.5,20 52.5,40 48.5,43 28.5,24 			"/>
		</defs>
		<clipPath id="SVGID_4_">
			<use xlink:href="#SVGID_3_"  style="overflow:visible;"/>
		</clipPath>
		<g style="clip-path:url(#SVGID_4_);">
			
				<image style="overflow:visible;" width="64" height="64" xlink:href="EE3FEC87.jpg"  transform="matrix(1 0 0 1 0.4996 1.525879e-05)">
			</image>
		</g>
	</g>
	<g>
		<defs>
			<polygon id="SVGID_5_" points="52.5,24 48.5,20 28.5,40 32.5,43 52.5,24 			"/>
		</defs>
		<clipPath id="SVGID_6_">
			<use xlink:href="#SVGID_5_"  style="overflow:visible;"/>
		</clipPath>
		<g style="clip-path:url(#SVGID_6_);">
			
				<image style="overflow:visible;" width="64" height="64" xlink:href="EE3FEC89.jpg"  transform="matrix(1 0 0 1 0.4996 1.525879e-05)">
			</image>
		</g>
	</g>
</g>
</svg>
