<?xml version="1.0" encoding="utf-8"?>
<!-- Generator: Adobe Illustrator 21.1.0, SVG Export Plug-In . SVG Version: 6.00 Build 0)  -->
<svg version="1.1" id="Layer_1" xmlns="http://www.w3.org/2000/svg" xmlns:xlink="http://www.w3.org/1999/xlink" x="0px" y="0px"
	 viewBox="0 0 64 64" style="enable-background:new 0 0 64 64;" xml:space="preserve">
<g>
	<g>
		<defs>
			<path id="SVGID_1_" d="M51.8,15c-0.3-0.3-0.6-0.4-1-0.4h-7.6c-0.5-2.4-1.5-4.6-2.9-6.3h10.4c0.4,0,0.8-0.1,1-0.4
				c0.3-0.3,0.4-0.6,0.4-1V2.4c0-0.4-0.1-0.7-0.4-1c-0.3-0.3-0.6-0.4-1-0.4h-37c-0.4,0-0.8,0.1-1,0.4s-0.4,0.6-0.4,1v5.9
				c0,0.4,0.1,0.7,0.4,1c0.3,0.3,0.6,0.4,1,0.4h6.5c6.3,0,10.2,1.7,11.9,5H13.7c-0.4,0-0.8,0.1-1,0.4c-0.3,0.3-0.4,0.6-0.4,1v4.5
				c0,0.4,0.1,0.7,0.4,1c0.3,0.3,0.6,0.4,1,0.4h19c-0.7,2.4-2.2,4.2-4.6,5.5c-2.4,1.3-5.5,1.9-9.5,1.9h-5c-0.4,0-0.7,0.1-1,0.4
				c-0.3,0.3-0.4,0.6-0.4,1v5.6c0,0.4,0.1,0.7,0.4,1c5.7,6,13.1,14.4,22.2,25.1c0.3,0.4,0.6,0.5,1.1,0.5h8.7c0.6,0,1.1-0.3,1.3-0.8
				c0.3-0.5,0.2-1-0.2-1.5c-8.7-10.5-15.5-18.4-20.4-23.6c5-0.6,9.1-2.2,12.3-4.8c3.1-2.6,5.1-6.1,5.7-10.3h7.5c0.4,0,0.8-0.1,1-0.4
				c0.3-0.3,0.4-0.6,0.4-1v-4.5C52.2,15.6,52.1,15.3,51.8,15L51.8,15z"/>
		</defs>
		<clipPath id="SVGID_2_">
			<use xlink:href="#SVGID_1_"  style="overflow:visible;"/>
		</clipPath>
		<g style="clip-path:url(#SVGID_2_);">
			
				<image style="overflow:visible;" width="64" height="64" xlink:href="720D8D22.jpg"  transform="matrix(1 0 0 1 0.25 3.051758e-05)">
			</image>
		</g>
	</g>
</g>
</svg>
