<?xml version="1.0" encoding="utf-8"?>
<!-- Generator: Adobe Illustrator 21.1.0, SVG Export Plug-In . SVG Version: 6.00 Build 0)  -->
<svg version="1.1" id="Layer_1" xmlns="http://www.w3.org/2000/svg" xmlns:xlink="http://www.w3.org/1999/xlink" x="0px" y="0px"
	 viewBox="0 0 126 40" style="enable-background:new 0 0 126 40;" xml:space="preserve">
<style type="text/css">
	.st0{fill:#FFFFFF;}
	.st1{font-family:'MicroSquare-Bold';}
	.st2{font-size:10.7383px;}
	.st3{letter-spacing:0.8;}
</style>
<polygon class="st0" points="28.6,25.2 30.4,25.2 30.4,38.3 30.4,38.9 28.6,38.9 "/>
<polygon class="st0" points="30.4,38.1 86.3,29.2 88.2,29.2 88.2,30.8 28.6,40.2 28.6,38.2 "/>
<rect x="86.3" y="25.2" class="st0" width="1.9" height="4.2"/>
<polygon class="st0" points="28.6,15 30.4,15 30.4,2 30.4,1.4 28.6,1.4 "/>
<polygon class="st0" points="30.4,2.3 86.3,11 88.2,11 88.2,9.4 28.6,0.2 28.6,2.1 "/>
<rect x="86.3" y="10.7" class="st0" width="1.9" height="4.2"/>
<text transform="matrix(1.1919 0 0 1 85.5537 23.7168)" class="st0 st1 st2 st3">INDIA</text>
<text transform="matrix(1.1919 0 0 1 -0.3091 23.7168)"><tspan x="0" y="0" class="st0 st1 st2 st3">BILLBOARDS</tspan><tspan x="70.1" y="0" class="st0 st1 st2 st3"> </tspan></text>
<rect x="86.3" y="16.5" class="st0" width="1.9" height="7.2"/>
</svg>
