<?xml version="1.0" encoding="utf-8"?>
<!-- Generator: Adobe Illustrator 21.1.0, SVG Export Plug-In . SVG Version: 6.00 Build 0)  -->
<svg version="1.1" id="Layer_1" xmlns="http://www.w3.org/2000/svg" xmlns:xlink="http://www.w3.org/1999/xlink" x="0px" y="0px"
	 viewBox="0 0 158 50" style="enable-background:new 0 0 158 50;" xml:space="preserve">
<style type="text/css">
	.st0{fill:#971B1E;}
	.st1{fill:#3C393B;}
	.st2{font-family:'MicroSquare-Bold';}
	.st3{font-size:13.4228px;}
	.st4{letter-spacing:0.8;}
</style>
<polygon class="st0" points="37,31.4 39.2,31.4 39.2,47.9 39.2,48.6 37,48.6 "/>
<polygon class="st0" points="39.2,47.5 109.3,36.5 111.6,36.5 111.6,38.5 37,50.2 37,47.7 "/>
<rect x="109.3" y="31.5" class="st0" width="2.4" height="5.3"/>
<polygon class="st1" points="37,18.7 39.2,18.7 39.2,2.4 39.2,1.7 37,1.7 "/>
<polygon class="st1" points="39.2,2.8 109.3,13.7 111.6,13.7 111.6,11.7 37,0.2 37,2.6 "/>
<rect x="109.3" y="13.4" class="st1" width="2.4" height="5.2"/>
<text transform="matrix(1.1957 0 0 1 108.3604 29.6045)" class="st0 st2 st3 st4">INDIA</text>
<text transform="matrix(1.1957 0 0 1 0.6914 29.6045)"><tspan x="0" y="0" class="st1 st2 st3 st4">BILLBOARDS</tspan><tspan x="87.6" y="0" class="st1 st2 st3 st4"> </tspan></text>
<rect x="109.3" y="20.6" class="st0" width="2.3" height="9"/>
</svg>
