<?xml version="1.0" encoding="utf-8"?>
<!-- Generator: Adobe Illustrator 21.1.0, SVG Export Plug-In . SVG Version: 6.00 Build 0)  -->
<svg version="1.1" id="Layer_1" xmlns="http://www.w3.org/2000/svg" xmlns:xlink="http://www.w3.org/1999/xlink" x="0px" y="0px"
	 viewBox="0 0 190 60" style="enable-background:new 0 0 190 60;" xml:space="preserve">
<style type="text/css">
	.st0{fill:#FFFFFF;}
	.st1{font-family:'MicroSquare-Bold';}
	.st2{font-size:16.1074px;}
	.st3{letter-spacing:1.7;}
	.st4{letter-spacing:0.8;}
</style>
<polygon class="st0" points="43.3,37.7 46,37.7 46,57.4 46,58.3 43.3,58.3 "/>
<polygon class="st0" points="46.1,57 130.3,43.7 133.1,43.7 133.1,46.1 43.3,60.2 43.3,57.2 "/>
<rect x="130.3" y="37.8" class="st0" width="2.8" height="6.4"/>
<polygon class="st0" points="43.3,22.3 46,22.3 46,2.9 46,2 43.3,2 "/>
<polygon class="st0" points="46.1,3.3 130.3,16.4 133.1,16.4 133.1,14 43.3,0.2 43.3,3.1 "/>
<rect x="130.3" y="16" class="st0" width="2.8" height="6.3"/>
<text transform="matrix(1.1982 0 0 1 129.167 35.4912)" class="st0 st1 st2 st3">INDIA</text>
<text transform="matrix(1.1982 0 0 1 -0.3091 35.4922)"><tspan x="0" y="0" class="st0 st1 st2 st4">BILLBOARDS</tspan><tspan x="105.1" y="0" class="st0 st1 st2 st3"> </tspan></text>
<rect x="130.3" y="24.7" class="st0" width="2.8" height="10.8"/>
</svg>
