<?xml version="1.0" encoding="iso-8859-1"?>
<!-- Generator: Adobe Illustrator 17.1.0, SVG Export Plug-In . SVG Version: 6.00 Build 0)  -->
<!DOCTYPE svg PUBLIC "-//W3C//DTD SVG 1.1//EN" "http://www.w3.org/Graphics/SVG/1.1/DTD/svg11.dtd">
<svg version="1.1" id="Capa_1" xmlns="http://www.w3.org/2000/svg" xmlns:xlink="http://www.w3.org/1999/xlink" x="0px" y="0px"
	 viewBox="0 0 512 512" style="enable-background:new 0 0 512 512;" xml:space="preserve">
<g>
	<path d="M512,348V92c0-10.429-6.689-19.322-16-22.624V60c0-4.418-3.582-8-8-8s-8,3.582-8,8v8h-88V52h16c4.418,0,8-3.582,8-8V23
		c0-6.065-4.935-11-11-11h-42c-6.065,0-11,4.935-11,11v21c0,4.418,3.582,8,8,8h16v16H136V52h16c4.418,0,8-3.582,8-8V23
		c0-6.065-4.935-11-11-11h-42c-6.065,0-11,4.935-11,11v21c0,4.418,3.582,8,8,8h16v16H32v-8c0-4.418-3.582-8-8-8s-8,3.582-8,8v9.376
		C6.689,72.678,0,81.571,0,92v256c0,10.429,6.689,19.322,16,22.624V484H8c-4.418,0-8,3.582-8,8s3.582,8,8,8h32c4.418,0,8-3.582,8-8
		s-3.582-8-8-8h-8V372h448v112h-8c-4.418,0-8,3.582-8,8s3.582,8,8,8h32c4.418,0,8-3.582,8-8s-3.582-8-8-8h-8V370.624
		C505.311,367.322,512,358.429,512,348z M368,28h32v8h-32V28z M112,28h32v8h-32V28z M16,92c0-4.411,3.589-8,8-8h464
		c4.411,0,8,3.589,8,8v256c0,4.411-3.589,8-8,8H24c-4.411,0-8-3.589-8-8V92z"/>
	<path d="M344,220c0-48.523-39.477-88-88-88s-88,39.477-88,88s39.477,88,88,88S344,268.523,344,220z M184,220
		c0-39.701,32.299-72,72-72s72,32.299,72,72s-32.299,72-72,72S184,259.701,184,220z"/>
	<path d="M264,268c4.418,0,8-3.582,8-8s-3.582-8-8-8v-48c4.418,0,8-3.582,8-8s-3.582-8-8-8h-16c-4.418,0-8,3.582-8,8s3.582,8,8,8v48
		c-4.418,0-8,3.582-8,8s3.582,8,8,8H264z"/>
	<path d="M256,180c2.11,0,4.17-0.85,5.66-2.34c1.49-1.49,2.34-3.55,2.34-5.66c0-2.1-0.85-4.17-2.34-5.66
		c-1.49-1.49-3.55-2.34-5.66-2.34c-2.11,0-4.17,0.85-5.66,2.34c-1.49,1.49-2.34,3.56-2.34,5.66c0,2.11,0.85,4.17,2.34,5.66
		C251.83,179.15,253.89,180,256,180z"/>
	<path d="M384,116h15.999c4.418,0,8-3.582,8-8s-3.582-8-8-8H384c-4.418,0-8,3.582-8,8S379.582,116,384,116z"/>
	<path d="M40,340h40.002c4.418,0,8-3.582,8-8s-3.582-8-8-8H48V116h303.999c4.418,0,8-3.582,8-8s-3.582-8-8-8H40
		c-4.418,0-8,3.582-8,8v224C32,336.418,35.582,340,40,340z"/>
	<path d="M432,116h32v208H112.003c-4.418,0-8,3.582-8,8s3.582,8,8,8H472c4.418,0,8-3.582,8-8V108c0-4.418-3.582-8-8-8h-40
		c-4.418,0-8,3.582-8,8S427.582,116,432,116z"/>
</g>
<g>
</g>
<g>
</g>
<g>
</g>
<g>
</g>
<g>
</g>
<g>
</g>
<g>
</g>
<g>
</g>
<g>
</g>
<g>
</g>
<g>
</g>
<g>
</g>
<g>
</g>
<g>
</g>
<g>
</g>
</svg>
