<?xml version="1.0" encoding="utf-8"?>
<!-- Generator: Adobe Illustrator 15.0.0, SVG Export Plug-In . SVG Version: 6.00 Build 0)  -->
<!DOCTYPE svg PUBLIC "-//W3C//DTD SVG 1.1//EN" "http://www.w3.org/Graphics/SVG/1.1/DTD/svg11.dtd">
<svg version="1.1" id="Capa_1" xmlns="http://www.w3.org/2000/svg" xmlns:xlink="http://www.w3.org/1999/xlink" x="0px" y="0px"
	 width="48.665px" height="48.665px" viewBox="0 0 48.665 48.665" enable-background="new 0 0 48.665 48.665" xml:space="preserve">
<g>
	<g>
		<path fill="#595959" d="M40.333,31.592c-2.377,0-4.516,1-6.033,2.598l-17.736-8.686c0.061-0.406,0.103-0.82,0.103-1.248
			c0-0.414-0.04-0.818-0.098-1.215l17.711-8.589c1.521,1.609,3.666,2.619,6.056,2.619c4.603,0,8.332-3.731,8.332-8.333
			c0-4.604-3.729-8.333-8.332-8.333C35.73,0.406,32,4.136,32,8.739c0,0.414,0.041,0.817,0.099,1.215L14.39,18.543
			c-1.519-1.609-3.666-2.619-6.054-2.619C3.73,15.925,0,19.656,0,24.258c0,4.603,3.73,8.333,8.333,8.333
			c2.377,0,4.515-1,6.033-2.596l17.736,8.687c-0.063,0.405-0.104,0.819-0.104,1.243c0,4.604,3.729,8.334,8.332,8.334
			s8.334-3.729,8.334-8.334C48.665,35.322,44.935,31.592,40.333,31.592z"/>
	</g>
</g>
</svg>
