<svg xmlns="http://www.w3.org/2000/svg" viewBox="-13211.503 5343 19.895 20.001">
  <defs>
    <style>
      .cls-1 {
        fill-rule: evenodd;
      }
    </style>
  </defs>
  <path id="skype" class="cls-1" d="M584.939,5940.35a9.051,9.051,0,0,0,.11-1.33,8.7,8.7,0,0,0-8.869-8.681,9.893,9.893,0,0,0-1.343.111,5.246,5.246,0,0,0-3.284-1.45,5.079,5.079,0,0,0-4.038,8.129,8.984,8.984,0,0,0-.2,1.891,8.884,8.884,0,0,0,10.705,8.951,4.838,4.838,0,0,0,3.318,1.02,5.083,5.083,0,0,0,3.6-8.64Zm-4.62,2.76a3.481,3.481,0,0,1-1.534,1.17,6.214,6.214,0,0,1-2.393.42,5.71,5.71,0,0,1-2.739-.581,3.5,3.5,0,0,1-1.242-1.11,2.37,2.37,0,0,1-.478-1.35.885.885,0,0,1,.287-.661,1.023,1.023,0,0,1,.73-.27.91.91,0,0,1,.608.21,1.7,1.7,0,0,1,.424.63,4.083,4.083,0,0,0,.463.83,1.941,1.941,0,0,0,.7.55,3.39,3.39,0,0,0,2.827-.22,1.287,1.287,0,0,0,.631-1.09,1.085,1.085,0,0,0-.34-.83,2.138,2.138,0,0,0-.88-.49,12.411,12.411,0,0,0-1.442-.36,11.921,11.921,0,0,1-2.022-.61,3.334,3.334,0,0,1-1.293-.96,2.329,2.329,0,0,1-.478-1.5,2.436,2.436,0,0,1,.5-1.52,3.2,3.2,0,0,1,1.461-1.02,6.376,6.376,0,0,1,2.248-.35,5.936,5.936,0,0,1,1.786.229,3.921,3.921,0,0,1,1.249.63,2.718,2.718,0,0,1,.727.82,1.8,1.8,0,0,1,.23.84.963.963,0,0,1-.287.68.947.947,0,0,1-.715.3.868.868,0,0,1-.593-.18,2.461,2.461,0,0,1-.439-.59,2.744,2.744,0,0,0-.735-.92,2.283,2.283,0,0,0-1.377-.32,2.514,2.514,0,0,0-1.418.351,1.023,1.023,0,0,0-.539.859.829.829,0,0,0,.184.54,1.4,1.4,0,0,0,.5.38,3.376,3.376,0,0,0,.649.26q.329.09,1.087.27c.631.13,1.2.29,1.716.45a5.426,5.426,0,0,1,1.308.6,2.483,2.483,0,0,1,.841.89,2.683,2.683,0,0,1,.3,1.33,2.9,2.9,0,0,1-.512,1.691Z" transform="translate(-13778 -586)"/>
</svg>
