<svg xmlns="http://www.w3.org/2000/svg" viewBox="-13287.795 5343.84 19.92 17.5">
  <defs>
    <style>
      .cls-1 {
        fill-rule: evenodd;
      }
    </style>
  </defs>
  <path id="google_plus" data-name="google plus" class="cls-1" d="M499.976,5940.03a3.731,3.731,0,0,1-1.482-1.771c0-.6.172-.9,1.081-1.609a3.487,3.487,0,0,0,1.487-2.831c0-1.43-.527-3.149-1.712-3.149h1.786l1.261-.83h-5.633c-2.526,0-4.9,1.76-4.9,3.98a4.013,4.013,0,0,0,4.29,4.03c.178,0,.352-.05.523-.061a2.215,2.215,0,0,0-.287,1.04,2.184,2.184,0,0,0,.767,1.55h-.977c-3.127,0-5.975,1.69-5.975,3.77,0,2.04,3.08,3.19,6.208,3.19,3.565,0,5.406-1.59,5.406-3.64a3.819,3.819,0,0,0-1.843-3.669Zm-3.008-2.84c-1.453-.04-2.831-1.63-3.081-3.55s.722-3.38,2.172-3.33,2.831,1.58,3.082,3.49-.723,3.43-2.173,3.39Zm-.569,9.24c-2.161,0-3.723-.93-3.723-2.58,0-1.62,1.936-2.97,4.1-2.94a4.484,4.484,0,0,1,1.4.22c1.174.82,1.809,1.29,2.046,2.22a2.536,2.536,0,0,1,.069.581c0,1.659-.852,2.5-3.891,2.5Zm11.244-15.8v2.54h2.482v1.68h-2.482v2.5h-1.658v-2.5H503.5v-1.68h2.483v-2.54h1.658Z" transform="translate(-13778 -586)"/>
</svg>
