<svg xmlns="http://www.w3.org/2000/svg" viewBox="-15294.001 -528.01 60.002 59.85">
  <defs>
    <style>
      .cls-1 {
        fill: #2f3238;
      }

      .cls-1, .cls-2 {
        fill-rule: evenodd;
      }

      .cls-2 {
        fill: #e74c3c;
      }
    </style>
  </defs>
  <g id="gouge" transform="translate(-15768 -1635)">
    <path id="black" class="cls-1" d="M478,1149h45a1,1,0,0,1,0,2H479a1,1,0,0,1-1-1C478,1149.45,477.448,1149,478,1149Zm12,6h36c.552,0,.473.71,0,1-1.125.68-.448,1-1,1H490a1,1,0,0,1,0-2Zm17-48.01v.01a1,1,0,0,0,0,2v.01a28,28,0,1,1-6,0V1109a1,1,0,0,0,0-2v-.01a30,30,0,1,0,6,0ZM527,1138a1,1,0,0,1-1-1,22,22,0,1,0-44,0,1,1,0,0,1-2,0,24,24,0,0,1,48,0A1,1,0,0,1,527,1138Z"/>
    <path id="blue" class="cls-2" d="M504,1121a1,1,0,0,1,1,1v22a1,1,0,0,1-2,0v-22A1,1,0,0,1,504,1121Z"/>
  </g>
</svg>
