<svg id="Layer_1" data-name="Layer 1" xmlns="http://www.w3.org/2000/svg" viewBox="0 0 72 72"><defs><style>.cls-1{fill:#fff;opacity:0;}.cls-2{fill:#737d87;}</style></defs><title>project_support_icon</title><rect class="cls-1" width="72" height="72"/><path class="cls-2" d="M49.79,3.58H11.17A5.74,5.74,0,0,0,5.44,9.31V55.87a5.74,5.74,0,0,0,5.73,5.73H37.84a16.4,16.4,0,0,1-1.16-4.41H11.17a1.34,1.34,0,0,1-1.32-1.32V9.31A1.34,1.34,0,0,1,11.17,8H49.79a1.34,1.34,0,0,1,1.32,1.32V38.56a16.27,16.27,0,0,1,4.41,0V9.31A5.73,5.73,0,0,0,49.79,3.58Z"/><path class="cls-2" d="M43.29,17.83H17.67a2.2,2.2,0,1,1,0-4.41H43.29a2.2,2.2,0,1,1,0,4.41Z"/><path class="cls-2" d="M43.29,29H17.67a2.2,2.2,0,1,1,0-4.41H43.29a2.2,2.2,0,1,1,0,4.41Z"/><path class="cls-2" d="M43.29,40.15H17.67a2.2,2.2,0,1,1,0-4.41H43.29a2.2,2.2,0,1,1,0,4.41Z"/><path class="cls-2" d="M33.2,51.31H17.67a2.2,2.2,0,1,1,0-4.41H33.2a2.2,2.2,0,1,1,0,4.41Z"/><path class="cls-2" d="M53.32,41.94A13.24,13.24,0,1,0,66.56,55.18,13.24,13.24,0,0,0,53.32,41.94Zm8.35,9.29L51.25,61.7a1.1,1.1,0,0,1-.8.36,1.06,1.06,0,0,1-.52-.13h-.05l-.19-.19-1.06-1.06h0L45,57a1.1,1.1,0,0,1-.31-.76,1.08,1.08,0,0,1,.32-.77l1.09-1.09a1,1,0,0,1,.76-.32,1.08,1.08,0,0,1,.77.32l2.89,2.89,8.58-8.64a1.07,1.07,0,0,1,.77-.31,1.05,1.05,0,0,1,.76.31l1.09,1.09A1.09,1.09,0,0,1,61.68,51.23Z"/></svg>