<svg xmlns="http://www.w3.org/2000/svg" viewBox="-13327.563 5343.02 19.868 19.97">
  <defs>
    <style>
      .cls-1 {
        fill-rule: evenodd;
      }
    </style>
  </defs>
  <path id="rss" class="cls-1" d="M453.338,5943.18a2.89,2.89,0,1,0,2.9,2.891,2.89,2.89,0,0,0-2.9-2.891Zm-2.747-7.49c-.05,0-.1.01-.153.01v3.69a.8.8,0,0,1,.153-.009,9.493,9.493,0,0,1,9.384,9.379c0,.08-.01.15-.012.23h3.7c0-.08.013-.15.013-.23a13.2,13.2,0,0,0-13.085-13.07Zm0-6.67c-.05,0-.1.01-.153.01v3.72c.051,0,.1-.01.153-.01a16.133,16.133,0,0,1,16.067,16.02c0,.08,0,.15-.006.23H470.3c0-.08.006-.15.006-.23A19.816,19.816,0,0,0,450.591,5929.02Z" transform="translate(-13778 -586)"/>
</svg>
