<?xml version="1.0" encoding="utf-8"?>
<!-- Svg Vector Icons : http://www.onlinewebfonts.com/icon -->
<!DOCTYPE svg PUBLIC "-//W3C//DTD SVG 1.1//EN" "http://www.w3.org/Graphics/SVG/1.1/DTD/svg11.dtd">
<svg version="1.1" xmlns="http://www.w3.org/2000/svg" xmlns:xlink="http://www.w3.org/1999/xlink" x="0px" y="0px" viewBox="0 0 1000 1000" enable-background="new 0 0 1000 1000" xml:space="preserve">
<metadata> Svg Vector Icons : http://www.onlinewebfonts.com/icon </metadata>
<g><path d="M955.3,439.7c22.2,25.5,34.7,67.7,34.7,107.9c0,26.6-5.8,49.8-16.7,67.2c-14.2,22.7-36.8,35.2-63.8,35.2H778.6c71.2,129.5,89.2,227,53.5,290.2c-24.9,44-70.6,59.6-102.2,59.6c-12.5,0-23.1-9.3-24.7-21.7c-9-65.9-59.3-144.6-138.3-215.8c-75.7-68.2-168.6-122.7-264.2-155.4c-12.1,25.4-37.9,43-67.8,43H85c-41.3,0-75-33.6-75-75V125.2c0-41.3,33.6-75,75-75h149.9c31.7,0,58.8,19.7,69.7,47.6c98-12.3,134.9-32,170.6-51.1c44.8-23.9,86.9-46.5,225-46.5c36,0,69.9,9.4,95.5,26.4c25,16.6,41,40,46.3,67.1c20,8.1,37.7,26.8,51.2,54.6c13.2,27,21.7,61.6,21.7,88c0,5-0.3,9.5-0.8,13.7c12.6,9.3,24,23.6,33.3,42.5c13.5,27.2,21.6,61.4,21.6,91.2c0,21.2-3.9,38.8-11.7,52.5c-0.6,1.1-1.3,2.2-2,3.2L955.3,439.7z M234.8,100.2H84.9c-13.8,0-25,11.2-25,25V575c0,13.8,11.2,25,25,25h149.9c13.8,0,25-11.2,25-25V125.3v0C259.8,111.4,248.6,100.2,234.8,100.2z M926.4,486.3c-7.6-15.2-15.2-20.7-18.5-20.7c-13.8,0-25-11.2-25-25c0-13.8,11.2-25,25-25c2.1,0,3.6,0,5.9-3.9c3.3-5.8,5.2-16,5.2-27.9c0-22.2-6.2-48.7-16.4-69.1c-9.9-19.9-19.9-27.2-24.3-27.2c-13.8,0-25-11.2-25-25c0-8.8,4.6-16.6,11.5-21.1c1.6-15.9-5.9-58.2-25-85.9c-7.3-10.4-14.9-16.4-20.9-16.4c-13.8,0-25-11.2-25-25c0-44-48.6-64-93.7-64c-125.6,0-160.8,18.8-201.5,40.6c-38.1,20.3-80.9,43.2-189,56.7v409.2c105,34.5,207.5,93.8,290.4,168.6c79.6,71.7,131.9,149.3,149.6,221.2c13.6-4.3,28.9-13.5,38.8-30.8c16.7-29.5,29.2-104.8-74.6-277.8c-4.6-7.7-4.7-17.3-0.3-25.2c4.4-7.9,12.7-12.7,21.8-12.7h174c10,0,16.4-3.5,21.5-11.7c5.9-9.4,9.1-23.9,9.1-40.8C940,526.3,934.9,503.4,926.4,486.3L926.4,486.3L926.4,486.3z"/></g>
</svg>