<svg xmlns="http://www.w3.org/2000/svg" viewBox="-13402.987 5343 285.994 20.002">
  <defs>
    <style>
      .cls-1, .cls-2 {
        fill-rule: evenodd;
      }

      .cls-2 {
        fill: #e74c3c;
      }
    </style>
  </defs>
  <g id="Icons" transform="translate(-13778 -586)">
    <g id="Social_Icon" data-name="Social Icon">
      <path id="tumblr" class="cls-1" d="M658.661,5945.71a2.519,2.519,0,0,1-2.63-2.36v-5.99h4.138v-3.37h-4.138V5929h-2.893a5.029,5.029,0,0,1-3.751,5.14v3.18h2.491v7.14a4.838,4.838,0,0,0,5.04,4.53,6.63,6.63,0,0,0,4.089-1.11v-3.27a2.671,2.671,0,0,1-2.346,1.1Z"/>
      <path id="vimeo" class="cls-1" d="M606.287,5935.48c1.75-1.37,4.241-3.98,6.182-3.98s2.415,1.84,2.682,3.89,1.027,6.51,2.054,6.51,3.367-3.95,3.234-5.48-1.826-1.3-2.758-.86c.855-3.06,2.835-4.87,5.363-4.87s3.138,1.95,3.138,4.1c0,3.29-6.771,13.36-10.859,13.36-2.531,0-3.159-3.67-3.671-5.48s-1.521-6.58-2.7-6.88a4.565,4.565,0,0,0-1.75.93Z"/>
      <path id="skype" class="cls-1" d="M584.939,5940.35a9.051,9.051,0,0,0,.11-1.33,8.7,8.7,0,0,0-8.869-8.681,9.893,9.893,0,0,0-1.343.111,5.246,5.246,0,0,0-3.284-1.45,5.079,5.079,0,0,0-4.038,8.129,8.984,8.984,0,0,0-.2,1.891,8.884,8.884,0,0,0,10.705,8.951,4.838,4.838,0,0,0,3.318,1.02,5.083,5.083,0,0,0,3.6-8.64Zm-4.62,2.76a3.481,3.481,0,0,1-1.534,1.17,6.214,6.214,0,0,1-2.393.42,5.71,5.71,0,0,1-2.739-.581,3.5,3.5,0,0,1-1.242-1.11,2.37,2.37,0,0,1-.478-1.35.885.885,0,0,1,.287-.661,1.023,1.023,0,0,1,.73-.27.91.91,0,0,1,.608.21,1.7,1.7,0,0,1,.424.63,4.083,4.083,0,0,0,.463.83,1.941,1.941,0,0,0,.7.55,3.39,3.39,0,0,0,2.827-.22,1.287,1.287,0,0,0,.631-1.09,1.085,1.085,0,0,0-.34-.83,2.138,2.138,0,0,0-.88-.49,12.411,12.411,0,0,0-1.442-.36,11.921,11.921,0,0,1-2.022-.61,3.334,3.334,0,0,1-1.293-.96,2.329,2.329,0,0,1-.478-1.5,2.436,2.436,0,0,1,.5-1.52,3.2,3.2,0,0,1,1.461-1.02,6.376,6.376,0,0,1,2.248-.35,5.936,5.936,0,0,1,1.786.229,3.921,3.921,0,0,1,1.249.63,2.718,2.718,0,0,1,.727.82,1.8,1.8,0,0,1,.23.84.963.963,0,0,1-.287.68.947.947,0,0,1-.715.3.868.868,0,0,1-.593-.18,2.461,2.461,0,0,1-.439-.59,2.744,2.744,0,0,0-.735-.92,2.283,2.283,0,0,0-1.377-.32,2.514,2.514,0,0,0-1.418.351,1.023,1.023,0,0,0-.539.859.829.829,0,0,0,.184.54,1.4,1.4,0,0,0,.5.38,3.376,3.376,0,0,0,.649.26q.329.09,1.087.27c.631.13,1.2.29,1.716.45a5.426,5.426,0,0,1,1.308.6,2.483,2.483,0,0,1,.841.89,2.683,2.683,0,0,1,.3,1.33,2.9,2.9,0,0,1-.512,1.691Z"/>
      <path id="linkedin" class="cls-1" d="M526.715,5948.16h4.14v-12.49h-4.14Zm14.747-12.91a4.584,4.584,0,0,0-4.017,2.13v-1.71H533.33v12.49h4.141v-6.77c0-1.43.722-2.82,2.357-2.82a2.682,2.682,0,0,1,2.631,2.79v6.8H546.6v-7.08c0-4.92-3.329-5.83-5.138-5.83Zm-12.659-5.66a2.211,2.211,0,1,0,2.434,2.2,2.33,2.33,0,0,0-2.437-2.2Z"/>
      <path id="google_plus" data-name="google plus" class="cls-1" d="M499.976,5940.03a3.731,3.731,0,0,1-1.482-1.771c0-.6.172-.9,1.081-1.609a3.487,3.487,0,0,0,1.487-2.831c0-1.43-.527-3.149-1.712-3.149h1.786l1.261-.83h-5.633c-2.526,0-4.9,1.76-4.9,3.98a4.013,4.013,0,0,0,4.29,4.03c.178,0,.352-.05.523-.061a2.215,2.215,0,0,0-.287,1.04,2.184,2.184,0,0,0,.767,1.55h-.977c-3.127,0-5.975,1.69-5.975,3.77,0,2.04,3.08,3.19,6.208,3.19,3.565,0,5.406-1.59,5.406-3.64a3.819,3.819,0,0,0-1.843-3.669Zm-3.008-2.84c-1.453-.04-2.831-1.63-3.081-3.55s.722-3.38,2.172-3.33,2.831,1.58,3.082,3.49-.723,3.43-2.173,3.39Zm-.569,9.24c-2.161,0-3.723-.93-3.723-2.58,0-1.62,1.936-2.97,4.1-2.94a4.484,4.484,0,0,1,1.4.22c1.174.82,1.809,1.29,2.046,2.22a2.536,2.536,0,0,1,.069.581c0,1.659-.852,2.5-3.891,2.5Zm11.244-15.8v2.54h2.482v1.68h-2.482v2.5h-1.658v-2.5H503.5v-1.68h2.483v-2.54h1.658Z"/>
      <path id="rss" class="cls-1" d="M453.338,5943.18a2.89,2.89,0,1,0,2.9,2.891,2.89,2.89,0,0,0-2.9-2.891Zm-2.747-7.49c-.05,0-.1.01-.153.01v3.69a.8.8,0,0,1,.153-.009,9.493,9.493,0,0,1,9.384,9.379c0,.08-.01.15-.012.23h3.7c0-.08.013-.15.013-.23a13.2,13.2,0,0,0-13.085-13.07Zm0-6.67c-.05,0-.1.01-.153.01v3.72c.051,0,.1-.01.153-.01a16.133,16.133,0,0,1,16.067,16.02c0,.08,0,.15-.006.23H470.3c0-.08.006-.15.006-.23A19.816,19.816,0,0,0,450.591,5929.02Z"/>
      <path id="facebook" class="cls-1" d="M382.806,5932.32h2.151V5929H382.2v.01c-3.651.13-4.635,2.19-4.7,4.36h0v2.29h-2.487v3.32H377.5v10.01h4.137v-10.01h2.513l.6-3.32h-3.117v-2.05a1.2,1.2,0,0,1,1.173-1.29Z"/>
    </g>
    <path id="twitter" class="cls-2" d="M430.542,5933.06a7.253,7.253,0,0,1-2.277.65,4.385,4.385,0,0,0,1.71-2.24,6.646,6.646,0,0,1-2.56.911h0a4.218,4.218,0,0,0-2.966-1.4,4.074,4.074,0,0,0-3.923,4.25,4.164,4.164,0,0,0,.1.919h0a11.92,11.92,0,0,1-8.643-4.43,4.338,4.338,0,0,0,1.245,5.6,2.619,2.619,0,0,1-1.792-.471,3.968,3.968,0,0,0,3.166,4.03,3.2,3.2,0,0,1-1.709.13,3.877,3.877,0,0,0,3.669,2.8,7.233,7.233,0,0,1-5.919,1.71,12.251,12.251,0,0,0,6.421,1.83,11.66,11.66,0,0,0,11.772-12.04c0-.01,0-.02,0-.03v-.11a6.692,6.692,0,0,0,1.706-2.109Z"/>
  </g>
</svg>
