<?xml version="1.0" encoding="utf-8"?>
<!-- Generator: Adobe Illustrator 21.1.0, SVG Export Plug-In . SVG Version: 6.00 Build 0)  -->
<svg version="1.1" id="Layer_1" xmlns="http://www.w3.org/2000/svg" xmlns:xlink="http://www.w3.org/1999/xlink" x="0px" y="0px"
	 viewBox="0 0 64 64" style="enable-background:new 0 0 64 64;" xml:space="preserve">
<style type="text/css">
	.st0{clip-path:url(#SVGID_3_);}
</style>
<g>
	<image style="overflow:visible;" width="64" height="64" xlink:href="DF3D45C1.jpg"  transform="matrix(1 0 0 1 0 3.367676e-02)">
	</image>
	<g>
		<defs>
			<path id="SVGID_1_" d="M22.6,42.2h-4.9c-0.8,0-1.4-0.6-1.4-1.4v-5c0-0.8,0.6-1.4,1.4-1.4h4.9c0.8,0,1.4,0.6,1.4,1.4v5
				C24,41.6,23.4,42.2,22.6,42.2L22.6,42.2z M35,42.2H30c-0.8,0-1.4-0.6-1.4-1.4v-5c0-0.8,0.6-1.4,1.4-1.4H35c0.8,0,1.4,0.6,1.4,1.4
				v5C36.4,41.6,35.8,42.2,35,42.2L35,42.2z M47.3,42.2h-4.9c-0.8,0-1.4-0.6-1.4-1.4v-5c0-0.8,0.6-1.4,1.4-1.4h4.9
				c0.8,0,1.4,0.6,1.4,1.4v5C48.7,41.6,48.1,42.2,47.3,42.2L47.3,42.2z M22.6,54.7h-4.9c-0.8,0-1.4-0.6-1.4-1.4v-5
				c0-0.8,0.6-1.4,1.4-1.4h4.9c0.8,0,1.4,0.6,1.4,1.4v5C24,54,23.4,54.7,22.6,54.7L22.6,54.7z M35,54.7H30c-0.8,0-1.4-0.6-1.4-1.4
				v-5c0-0.8,0.6-1.4,1.4-1.4H35c0.8,0,1.4,0.6,1.4,1.4v5C36.4,54,35.8,54.7,35,54.7L35,54.7z M47.3,54.7h-4.9
				c-0.8,0-1.4-0.6-1.4-1.4v-5c0-0.8,0.6-1.4,1.4-1.4h4.9c0.8,0,1.4,0.6,1.4,1.4v5C48.7,54,48.1,54.7,47.3,54.7L47.3,54.7z M57.4,64
				H7.6C4.5,64,2,61.5,2,58.4V13.7C2,10.6,4.4,8.1,7.4,8v7.6c0,3.4,2.8,6.2,6.2,6.2h3.9c3.4,0,6.2-2.8,6.2-6.2V8h17.6v7.6
				c0,3.4,2.8,6.2,6.2,6.2h3.9c3.4,0,6.2-2.8,6.2-6.2V8c3,0.1,5.4,2.6,5.4,5.6v44.7C63,61.5,60.5,64,57.4,64L57.4,64z M55.8,32.5
				c0-1.3-1.1-2.4-2.4-2.4H11.6c-1.3,0-2.4,1.1-2.4,2.4v23.1c0,1.3,1.1,2.4,2.4,2.4h41.8c1.3,0,2.4-1.1,2.4-2.4V32.5L55.8,32.5z
				 M17.4,17.8h-3.9c-1.2,0-2.1-1-2.1-2.1V3.2C11.5,2,12.4,1,13.6,1h3.9c1.2,0,2.1,1,2.1,2.1v12.5C19.6,16.8,18.6,17.8,17.4,17.8
				L17.4,17.8z M51.3,17.8h-3.9c-1.2,0-2.1-1-2.1-2.1V3.2C45.3,2,46.3,1,47.4,1h3.9c1.2,0,2.1,1,2.1,2.1v12.5
				C53.4,16.8,52.5,17.8,51.3,17.8L51.3,17.8z"/>
		</defs>
		<defs>
			<rect id="SVGID_2_" y="-728" width="612" height="792"/>
		</defs>
		<clipPath id="SVGID_3_">
			<use xlink:href="#SVGID_1_"  style="overflow:visible;"/>
		</clipPath>
		<clipPath id="SVGID_4_" class="st0">
			<use xlink:href="#SVGID_2_"  style="overflow:visible;"/>
		</clipPath>
		<g style="clip-path:url(#SVGID_4_);">
			
				<image style="overflow:visible;" width="64" height="64" xlink:href="DF3D45C3.jpg"  transform="matrix(1 0 0 1 0 3.367676e-02)">
			</image>
		</g>
	</g>
	<g>
		<defs>
			<polygon id="SVGID_5_" points="16,34 25,34 25,43 16,43 16,34 			"/>
		</defs>
		<clipPath id="SVGID_6_">
			<use xlink:href="#SVGID_5_"  style="overflow:visible;"/>
		</clipPath>
		<g style="clip-path:url(#SVGID_6_);">
			
				<image style="overflow:visible;" width="64" height="64" xlink:href="DF3D45C6.jpg"  transform="matrix(1 0 0 1 0 3.367676e-02)">
			</image>
		</g>
	</g>
	<g>
		<defs>
			<polygon id="SVGID_7_" points="28,34 37,34 37,43 28,43 28,34 			"/>
		</defs>
		<clipPath id="SVGID_8_">
			<use xlink:href="#SVGID_7_"  style="overflow:visible;"/>
		</clipPath>
		<g style="clip-path:url(#SVGID_8_);">
			
				<image style="overflow:visible;" width="64" height="64" xlink:href="DF3D45C7.jpg"  transform="matrix(1 0 0 1 0 3.367676e-02)">
			</image>
		</g>
	</g>
	<g>
		<defs>
			<polygon id="SVGID_9_" points="41,34 50,34 50,43 41,43 41,34 			"/>
		</defs>
		<clipPath id="SVGID_10_">
			<use xlink:href="#SVGID_9_"  style="overflow:visible;"/>
		</clipPath>
		<g style="clip-path:url(#SVGID_10_);">
			
				<image style="overflow:visible;" width="64" height="64" xlink:href="DF3D45C2.jpg"  transform="matrix(1 0 0 1 0 3.367676e-02)">
			</image>
		</g>
	</g>
	<g>
		<defs>
			<polygon id="SVGID_11_" points="16,46 25,46 25,55 16,55 16,46 			"/>
		</defs>
		<clipPath id="SVGID_12_">
			<use xlink:href="#SVGID_11_"  style="overflow:visible;"/>
		</clipPath>
		<g style="clip-path:url(#SVGID_12_);">
			
				<image style="overflow:visible;" width="64" height="64" xlink:href="DF3D45CD.jpg"  transform="matrix(1 0 0 1 0 3.367676e-02)">
			</image>
		</g>
	</g>
	<g>
		<defs>
			<polygon id="SVGID_13_" points="28,46 37,46 37,55 28,55 28,46 			"/>
		</defs>
		<clipPath id="SVGID_14_">
			<use xlink:href="#SVGID_13_"  style="overflow:visible;"/>
		</clipPath>
		<g style="clip-path:url(#SVGID_14_);">
			
				<image style="overflow:visible;" width="64" height="64" xlink:href="DF3D45CE.jpg"  transform="matrix(1 0 0 1 0 3.367676e-02)">
			</image>
		</g>
	</g>
	<g>
		<defs>
			<polygon id="SVGID_15_" points="41,46 50,46 50,55 41,55 41,46 			"/>
		</defs>
		<clipPath id="SVGID_16_">
			<use xlink:href="#SVGID_15_"  style="overflow:visible;"/>
		</clipPath>
		<g style="clip-path:url(#SVGID_16_);">
			
				<image style="overflow:visible;" width="64" height="64" xlink:href="DF3D45CF.jpg"  transform="matrix(1 0 0 1 0 3.367676e-02)">
			</image>
		</g>
	</g>
	<g>
		<defs>
			<path id="SVGID_17_" d="M15.5,0C18,0,20,2,20,4.5v10c0,2.5-2,4.5-4.5,4.5C13,19,11,17,11,14.5v-10C11,2,13,0,15.5,0L15.5,0z"/>
		</defs>
		<clipPath id="SVGID_18_">
			<use xlink:href="#SVGID_17_"  style="overflow:visible;"/>
		</clipPath>
		<g style="clip-path:url(#SVGID_18_);">
			
				<image style="overflow:visible;" width="64" height="64" xlink:href="DF3D45C4.jpg"  transform="matrix(1 0 0 1 0 3.367676e-02)">
			</image>
		</g>
	</g>
	<g>
		<defs>
			<path id="SVGID_19_" d="M49.5,0C52,0,54,2,54,4.5v10c0,2.5-2,4.5-4.5,4.5C47,19,45,17,45,14.5v-10C45,2,47,0,49.5,0L49.5,0z"/>
		</defs>
		<clipPath id="SVGID_20_">
			<use xlink:href="#SVGID_19_"  style="overflow:visible;"/>
		</clipPath>
		<g style="clip-path:url(#SVGID_20_);">
			
				<image style="overflow:visible;" width="64" height="64" xlink:href="43DB14FA.jpg"  transform="matrix(1 0 0 1 0 3.367676e-02)">
			</image>
		</g>
	</g>
</g>
</svg>
